<?xml version="1.0" encoding="utf-8"?>
<!-- Generator: Adobe Illustrator 24.1.0, SVG Export Plug-In . SVG Version: 6.00 Build 0)  -->
<svg version="1.1" id="Layer_1" xmlns="http://www.w3.org/2000/svg" xmlns:xlink="http://www.w3.org/1999/xlink" x="0px" y="0px"
	 viewBox="0 0 1400 980" style="enable-background:new 0 0 1400 980;" xml:space="preserve">
<style type="text/css">
	.st0{fill:#F69F40;}
	.st1{fill:none;}
	.st2{opacity:0.13;}
	.st3{fill:#E0DFDE;}
	.st4{fill:#088B8A;}
	.st5{fill:#FFFFFF;}
	.st6{fill:#6AA878;}
	.st7{opacity:0.2;}
	.st8{fill:#103141;}
	.st9{fill:#F15542;}
	.st10{fill:#EA493D;}
	.st11{fill:#FFB948;}
	.st12{fill:#F48E27;}
	.st13{fill:#F2D8C4;}
	.st14{opacity:0.15;}
	.st15{fill:#EF8B26;}
	.st16{fill:#F4ECDE;}
</style>
<g>
	<g>
		<g>
			
				<ellipse transform="matrix(0.1648 -0.9863 0.9863 0.1648 333.1669 892.7556)" class="st0" cx="693.8" cy="249.6" rx="202.6" ry="202.6"/>
		</g>
		<g>
			<path class="st1" d="M591.4,342.9L774,121l122,115.8C889.4,130.9,801.4,47,693.8,47c-111.9,0-202.6,90.7-202.6,202.6
				c0,111.9,90.7,202.6,202.6,202.6c4.4,0,8.7-0.2,13.1-0.4L591.4,342.9z"/>
			<path class="st2" d="M591.4,342.9l115.4,109c105.8-6.7,189.6-94.7,189.6-202.2c0-4.3-0.2-8.6-0.4-12.8L774,121L591.4,342.9z"/>
		</g>
	</g>
	<g>
		<g>
			<rect x="700" y="127" class="st3" width="62" height="82"/>
			<path class="st3" d="M778,135.5c0,9.1-7.4,16.5-16.6,16.5h-60.8c-9.2,0-16.6-7.4-16.6-16.5v-1c0-9.1,7.4-16.5,16.6-16.5h60.8
				c9.2,0,16.6,7.4,16.6,16.5V135.5z"/>
			<path class="st3" d="M741,154.5c-4.8-11.4-12.6-11.4-17.3,0l-79.4,189.2c-4.8,11.4,1.4,20.3,13.8,20.3h148.6
				c12.3,0,18.5-8.9,13.8-20.3L741,154.5z"/>
			<g>
				<path class="st4" d="M762.6,267h-60.5L676,329c-3,7.3,0.9,13,8.8,13h95.1c7.9,0,11.9-5.7,8.8-13L762.6,267z"/>
			</g>
			<path class="st5" d="M720.7,307.5c0,3.9-3.2,7.1-7.1,7.1c-3.9,0-7.1-3.2-7.1-7.1c0-3.9,3.2-7.1,7.1-7.1
				C717.6,300.4,720.7,303.6,720.7,307.5z"/>
			<path class="st5" d="M750.7,290c0,3.9-3.2,7.1-7.1,7.1c-3.9,0-7.1-3.2-7.1-7.1c0-3.9,3.2-7.1,7.1-7.1
				C747.5,283,750.7,286.1,750.7,290z"/>
			<path class="st5" d="M753.1,322.4c0,3.9-3.2,7.1-7.1,7.1c-3.9,0-7.1-3.2-7.1-7.1c0-3.9,3.2-7.1,7.1-7.1
				C750,315.4,753.1,318.5,753.1,322.4z"/>
		</g>
		<g>
			<path class="st5" d="M722.6,286.8c0,42.6-34.6,77.2-77.2,77.2c-42.6,0-77.2-34.6-77.2-77.2s34.6-77.2,77.2-77.2
				C688,209.6,722.6,244.1,722.6,286.8z"/>
			<rect x="611" y="159" class="st5" width="68" height="104"/>
			<path class="st5" d="M696,173c0,9.4-7.6,17-17,17h-66c-9.4,0-17-7.6-17-17v0c0-9.4,7.6-17,17-17h66C688.4,156,696,163.6,696,173
				L696,173z"/>
			<g>
				<path class="st6" d="M592.8,278c-0.6,4-0.9,6.1-0.9,9.5c0,29.5,23.9,53.4,53.5,53.4c29.5,0,53.5-23.8,53.5-53.3
					c0-3.3-0.3-5.5-0.9-9.5H592.8z"/>
			</g>
			<path class="st5" d="M632.1,313.2c2.3,3.1,1.7,7.5-1.4,9.9c-3.1,2.3-7.5,1.7-9.9-1.4c-2.3-3.1-1.7-7.5,1.4-9.9
				C625.4,309.5,629.8,310.1,632.1,313.2z"/>
			<path class="st5" d="M648,286.3c2.3,3.1,1.7,7.5-1.4,9.9c-3.1,2.3-7.5,1.7-9.9-1.4c-2.3-3.1-1.7-7.5,1.4-9.9
				C641.2,282.5,645.7,283.2,648,286.3z"/>
			<path class="st5" d="M675,304.7c2.3,3.1,1.7,7.5-1.4,9.9c-3.1,2.3-7.5,1.7-9.9-1.4c-2.3-3.1-1.7-7.5,1.4-9.9
				C668.2,300.9,672.6,301.6,675,304.7z"/>
		</g>
	</g>
</g>
<g>
	<g>
		<g>
			<path class="st6" d="M954.3,730.1c0,111.9,90.7,202.6,202.6,202.6c111.9,0,202.6-90.7,202.6-202.6
				c0-111.9-90.7-202.6-202.6-202.6C1045,527.5,954.3,618.2,954.3,730.1z"/>
		</g>
		<g>
			<path class="st1" d="M1056.4,848.9L1260,625.8l99.2,93c-5.9-106.6-94.2-191.3-202.3-191.3c-111.9,0-202.6,90.7-202.6,202.6
				c0,107.9,84.3,196,190.6,202.3L1056.4,848.9z"/>
			<path class="st7" d="M1056.4,848.9l88.5,83.5c4,0.2,8,0.4,12.1,0.4c111.9,0,202.6-90.7,202.6-202.6c0-3.8-0.1-7.6-0.3-11.4
				l-99.2-93L1056.4,848.9z"/>
		</g>
	</g>
	<g>
		<g>
			<path class="st8" d="M1156,691.7c-24.7,0-45-20.2-45-45v-31.6c0-24.8,20.3-45,45-45c24.7,0,45,20.2,45,45v31.6
				C1201,671.6,1180.7,691.7,1156,691.7z M1156,585.1c-16.4,0-29,13.5-29,30v31.6c0,16.6,12.6,30,29,30c16.4,0,29-13.5,29-30v-31.6
				C1185,598.6,1172.4,585.1,1156,585.1z"/>
		</g>
		<g>
			<g>
				<path class="st8" d="M1109,853.6c0,8.5-6.9,15.4-15.4,15.4h-1.1c-8.5,0-15.4-6.9-15.4-15.4v-9.1c0-8.5,6.9-15.4,15.4-15.4h1.1
					c8.5,0,15.4,6.9,15.4,15.4V853.6z"/>
			</g>
			<g>
				<path class="st8" d="M1235,853.9c0,8.5-7.2,15.1-15.7,15.1h-1.1c-8.5,0-15.2-6.5-15.2-15.1v-9.6c0-8.5,6.7-15.4,15.2-15.4h1.1
					c8.5,0,15.7,6.8,15.7,15.4V853.9z"/>
			</g>
		</g>
		<g>
			<path class="st9" d="M1264,829.5c0,14.1-11.4,25.5-25.5,25.5h-163.9c-14.1,0-25.5-11.4-25.5-25.5V641.5
				c0-14.1,11.4-25.5,25.5-25.5h163.9c14.1,0,25.5,11.4,25.5,25.5V829.5z"/>
		</g>
		<g>
			<path class="st10" d="M1239,807.2c0,11-8.9,19.8-19.8,19.8h-126.3c-11,0-19.8-8.9-19.8-19.8V661.8c0-11,8.9-19.8,19.8-19.8h126.3
				c11,0,19.8,8.9,19.8,19.8V807.2z"/>
		</g>
		<g>
			<path class="st0" d="M1265,720.3c0,14.1-11.9,25.7-26,25.7H1075c-14.1,0-26-11.6-26-25.7v-78.8c0-14.1,11.9-25.6,26-25.6H1239
				c14.1,0,26,11.5,26,25.6V720.3z"/>
		</g>
		<g>
			<path class="st11" d="M1232,708.8c0,10.1-8.2,18.2-18.2,18.2h-116.6c-10.1,0-18.2-8.2-18.2-18.2v-55.6c0-10.1,8.2-18.2,18.2-18.2
				h116.6c10.1,0,18.2,8.2,18.2,18.2V708.8z"/>
		</g>
		<g>
			<g>
				<g>
					<path class="st8" d="M1109,780c0,8.2-6.8,10.6-15,10.6l0,0c-8.2,0-15-2.4-15-10.6v-78.8c0-8.2,6.8-10.6,15-10.6l0,0
						c8.2,0,15,2.4,15,10.6V780z"/>
				</g>
				<g>
					<path class="st5" d="M1113,756.3c0,9.2-7.5,16.7-16.7,16.7h-4.7c-9.2,0-16.7-7.5-16.7-16.7v-0.7c0-9.2,7.5-16.7,16.7-16.7h4.7
						c9.2,0,16.7,7.5,16.7,16.7V756.3z M1109,756.4c0-6.9-5.6-12.4-12.4-12.4h-5.2c-6.9,0-12.4,5.6-12.4,12.4v1.2
						c0,6.9,5.6,12.4,12.4,12.4h5.2c6.9,0,12.4-5.6,12.4-12.4V756.4z"/>
				</g>
				<g>
					<g>
						<path class="st5" d="M1092,735c0,0,0,15,0,22c0,4,7,4,7,0c0-7,0-15,0-22C1099,731,1092,731,1092,735
							C1092,735,1092,731,1092,735z"/>
					</g>
				</g>
			</g>
			<g>
				<g>
					<path class="st8" d="M1233,780c0,8.2-6.8,10.6-15,10.6l0,0c-8.2,0-15-2.4-15-10.6v-78.8c0-8.2,6.8-10.6,15-10.6l0,0
						c8.2,0,15,2.4,15,10.6V780z"/>
				</g>
				<g>
					<path class="st5" d="M1237,756.3c0,9.2-7.5,16.7-16.7,16.7h-4.7c-9.2,0-16.7-7.5-16.7-16.7v-0.7c0-9.2,7.5-16.7,16.7-16.7h4.7
						c9.2,0,16.7,7.5,16.7,16.7V756.3z M1233,756.4c0-6.9-5.6-12.4-12.4-12.4h-5.2c-6.9,0-12.4,5.6-12.4,12.4v1.2
						c0,6.9,5.6,12.4,12.4,12.4h5.2c6.9,0,12.4-5.6,12.4-12.4V756.4z"/>
				</g>
				<g>
					<g>
						<path class="st5" d="M1215,735c0,0,0,15,0,22c0,4,7,4,7,0c0-7,0-15,0-22C1222,731,1215,731,1215,735
							C1215,735,1215,731,1215,735z"/>
					</g>
				</g>
			</g>
		</g>
	</g>
</g>
<g>
	<g>
		<g>
			<path class="st4" d="M491.1,730.1c0,111.9,90.7,202.6,202.6,202.6c111.9,0,202.6-90.7,202.6-202.6
				c0-111.9-90.7-202.6-202.6-202.6C581.8,527.5,491.1,618.2,491.1,730.1z"/>
		</g>
		<g>
			<path class="st1" d="M622.4,862.9L810,621l84.1,78.7c-14.7-97.5-98.8-172.2-200.4-172.2c-111.9,0-202.6,90.7-202.6,202.6
				c0,111.9,90.7,202.6,202.6,202.6c0.9,0,1.8,0,2.6,0L622.4,862.9z"/>
			<path class="st7" d="M622.4,862.9l74,69.9c110.7-1.4,200-91.6,200-202.6c0-10.4-0.8-20.5-2.3-30.5L810,621L622.4,862.9z"/>
		</g>
	</g>
	<g>
		<g>
			<g>
				<path class="st12" d="M632.8,807.1c0.5-2.3,2.8-4.1,5.2-4.1h23c2.4,0,3.9,1.7,3.4,4.1l-11.1,51.8c-0.5,2.3-2.8,4.1-5.2,4.1h-23
					c-2.4,0-3.9-1.8-3.4-4.1L632.8,807.1z"/>
				<path class="st12" d="M760.9,807.1c-0.5-2.3-2.8-4.1-5.2-4.1h-23c-2.4,0-3.9,1.7-3.4,4.1l11.1,51.8c0.5,2.3,2.8,4.1,5.2,4.1h23
					c2.4,0,3.9-1.8,3.4-4.1L760.9,807.1z"/>
			</g>
			<path class="st12" d="M715,647.1c0,9.9-8,17.9-17.9,17.9h-0.1c-9.9,0-17.9-8-17.9-17.9v-26.1c0-9.9,8-17.9,17.9-17.9h0.1
				c9.9,0,17.9,8,17.9,17.9V647.1z"/>
			<path class="st0" d="M814,799.1c0,7.1-5.8,12.9-12.9,12.9H585.9c-7.1,0-12.9-5.8-12.9-12.9V630.9c0-7.1,5.8-12.9,12.9-12.9h215.2
				c7.1,0,12.9,5.8,12.9,12.9V799.1z"/>
			<path class="st8" d="M798,785.5c0,5.2-3.3,9.5-7.6,9.5h-195c-4.4,0-7.4-4.3-7.4-9.5v-141c0-5.2,3-9.5,7.4-9.5h195
				c4.4,0,7.6,4.4,7.6,9.5V785.5z"/>
		</g>
		<g>
			<g>
				<path class="st5" d="M623.8,699.5h-0.1l-6.5,3.5l-1-3.8l8.2-4.4h4.3v37.4h-4.9V699.5z"/>
				<g>
					<path class="st1" d="M623.8,699.5h-0.1l-6.5,3.5l-1-3.8l8.2-4.4h4.3v37.4h-4.9V699.5z"/>
					<g>
						<polygon class="st5" points="622.3,699.5 622.2,699.6 622.4,699.7 						"/>
						<path class="st5" d="M622.8,700.3c0,0,0.1,0,0.1,0l-0.6-0.5C621.9,700,623,700.2,622.8,700.3z"/>
						<path class="st5" d="M622.7,700.5c-0.1,0.2,0.1,0.3,0.2,0.3C622.7,700.7,623,700.4,622.7,700.5z"/>
						<path class="st5" d="M622.9,716.6C622.9,716.6,622.9,716.5,622.9,716.6C622.9,716.6,622.9,716.6,622.9,716.6z"/>
						<path class="st5" d="M623.9,720.8l0.2,0c-0.4-0.8,0-1.7-0.2-2.5l0.1,0.1c0.1-2.1-0.3-4-0.5-6.1c0,0,0.1,0,0.1,0.1
							c-0.1-0.1-0.2-0.2-0.2-0.3c0.1,0,0.1,0,0.1,0.1c0.4-0.4-0.3-1.3,0.1-1.6c0-0.1-0.2-0.2-0.3-0.1c-0.1-1.6-0.2-3.4-0.5-5.1
							c0.1-0.1,0.2-0.1,0.3-0.1c-0.6-1.4-0.4-2.9-0.3-4.4c-0.2-0.1-0.2,0.1-0.3,0c-0.2,0.5,0.4,0.9,0.1,1.3l-0.2-0.1
							c-0.1,0.3,0.4,0.1,0.2,0.4c-0.1,0.1-0.2,0-0.2,0c0.1,0.7-0.1,1.3,0.3,2c-0.3,0.2,0,0.7-0.3,0.9c0.1,0.2,0.1,0.3,0.3,0.4
							c-0.2,2.3,0.2,4.7,0.1,7c0.7,1.1-0.1,2.4,0.1,3.7c0,0,0,0-0.1,0c0.2,0.4,0.2,1,0.2,1.6l0.3,0.4c-0.6,3.1-0.2,6.2-0.4,9.3
							c0,0.7-0.1,1.5-0.1,2.2l0,0.5l0,0.8c0,0.6,0,1.2-0.1,1.8l2.1,0l0.8,0l0.6,0c0.5,0,0.9-0.1,1.4-0.1c0.7,0,1.3-0.1,1.9-0.2
							c-0.1-0.5-0.1-1-0.2-1.5c0.1,0,0.1,0,0.1,0.1c0-0.4,0-0.8,0-1l0-0.7c0-0.5,0.1-0.9,0-1.4l0.1,0c-0.6-2.3,0.1-4.8-0.5-7.1
							c0.1-2.7,0-5.8-0.2-8.7l0.1,0c-0.3-2.3,0.4-4.5,0.2-6.8c0.3-2.4-0.8-4.9-0.4-7.3c0.5-1.1-0.2-2.7-0.3-3.6
							c-0.3,0-0.5,0-0.8-0.2c-0.5-0.2-1.1-0.3-1.6-0.4c-0.6-0.1-1-0.1-1.8-0.1c-1.7,0.9-2.9,2-4.3,3.2c-0.6,0.2-1.3,0.6-1.8,0.9
							c-0.6,0.4-1.1,0.7-1.5,1c0.2,0.5,0.3,0.9,0.4,1.5c0.1,0.5,0.1,0.9,0.1,1.7c0,0,0.1,0.1,0.1,0.1c0.5-0.4,0.8-0.4,1.4-0.5
							c0.6-0.1,1.3-0.2,1.8-0.6l-0.1-0.1c0.7,0.2,0.6-1.1,1.2-0.6l0,0.1c0.4,0.2,0.1-1.1,0.5-0.7L622,700c0.2-0.2,0.1,0.2,0.4,0.1
							c0.1-0.1-0.1-0.3,0.1-0.3c0.4,0.7,0.6-0.5,1,0.2c-0.1,0.1,0.4,0.2,0.1,0.5c0.1,0,0.6-0.3,0.4-0.6c-0.1-0.4-0.1-0.8-0.5-0.9
							l0.1,0.3c-0.2-0.2-0.1-0.1-0.3-0.3c-0.4,0.2-0.6-0.2-1-0.2c0,0,0,0,0,0c0,0.4-0.4,0.3-0.5,0.4l-0.1-0.1
							c-0.2-0.2-0.1,0.8-0.3,0.2c-0.7,0.5-1.5,1-2.3,1.4c0,0.2-0.6,0.3-0.3,0.6c-0.6-0.2-0.6-0.4-0.7-0.3c0-0.1,0-0.1,0-0.1
							c0-0.3,0-0.2-0.1,0c-0.1,0.2-0.2,0.4,0,0c0,0,0-0.1,0.1-0.1c-0.2,0.4-0.2,0.3-0.1,0.2c0-0.1,0-0.1-0.3,0.1
							c0.1-0.1,0.2-0.2,0.3-0.2c0,0,0-0.1,0-0.1l-0.1-0.6c0-0.1,0-0.3,0-0.3l0,0c0,0,0,0,0,0c-0.1,0-0.1,0-0.1-0.1
							c-0.1-0.2,0.1,0.2,0.5-0.6c0.4-0.1,1.2-0.2,1.6-0.7l0,0.1c0.6-0.4,1.3-0.8,1.6-1.4c0.5,0.4,0.7,0.2,1,0.2
							c0.3-0.5,1.1-0.8,1.6-1.4c0.2,0.2,0.5-0.4,0.6,0c0,0,0-0.1,0-0.1c-0.1-0.1,0.4-0.2,0.7-0.3c0.4-0.1,0.7-0.1,1.1-0.1
							c0.9,0,1,0,1.2,0.2c0,0.2-0.1,0.3-0.2,0.4c-0.1,0.1-0.1,0.1-0.2,0.5l0,0c0.2,0.3,0.7,0.6,1,0.9c0,0-0.1,0-0.1,0
							c0.1,0.4-0.3,0.7-0.3,1.1c-0.1,0-0.1,0-0.1-0.1c0.2,0.4-0.3,0.7,0,1.2l-0.1,0l0.2,0.3c-0.1,0-0.3,0-0.3-0.2
							c-0.1,3.3,0.6,6.7,0.5,10l-0.1-0.1l0.2,0.7c-0.1,0-0.1,0-0.1-0.1c-0.2,0.8,0.2,1.7,0.1,2.5c-0.1,0-0.2-0.1-0.3,0
							c0.4,0.6-0.5,1,0.3,1.3c0,0-0.2,0-0.3,0c0.3,1.7,0.2,3.4,0.1,5.1c0.7,1.4,0.1,3,0.6,4.4l-0.1,0c0.5,1.9,0,3.9,0.1,5.8
							c-0.1,0.8,0.1,1.4,0.1,2.1l-0.2-0.1c0.1,0.2,0.2,0.5,0.2,0.7c-0.5,0.1-1.1-0.1-1.7-0.2c-0.6-0.1-1.3-0.2-1.8,0.2l0.1-0.2
							c-0.3,0.4-0.6-0.1-0.9,0.5c0,0-0.1-0.2-0.1-0.2c-0.2,0.1-0.3,0.1-0.5,0.2c-0.2-0.3-0.1-0.9,0-1.3c0.1-0.4,0.2-0.9,0-1.4
							l0.1,0.1c-0.1-0.3-0.2-0.7-0.1-0.9c0,0,0.1,0,0.1,0.1c0.6-1-0.1-2.1,0-3.1l0.3,0.1c-0.3-0.5,0-1.4-0.2-2.1l0.1,0l-0.2-0.3
							l0.3,0C624.2,722.4,623.9,721.6,623.9,720.8z"/>
						<path class="st5" d="M623.6,712.1L623.6,712.1C623.6,712.1,623.6,712.1,623.6,712.1z"/>
						<path class="st5" d="M622.2,699c0,0,0.1,0,0.1,0C622.3,698.9,622.2,699,622.2,699z"/>
					</g>
				</g>
			</g>
			<g>
				<path class="st5" d="M658.7,701.6v13.5h13v3.4h-13v13.6H655v-13.6h-13v-3.4h13v-13.5H658.7z"/>
				<g>
					<path class="st1" d="M658.7,701.6v13.5h13v3.4h-13v13.6H655v-13.6h-13v-3.4h13v-13.5H658.7z"/>
					<g>
						<polygon class="st5" points="658.7,700.2 658.6,700.1 658.5,700.3 						"/>
						<path class="st5" d="M657.7,700.6c0,0,0,0.1,0,0.1l0.6-0.6C658.1,699.8,657.9,700.9,657.7,700.6z"/>
						<path class="st5" d="M657.5,700.6c-0.2-0.1-0.3,0.1-0.4,0.2C657.2,700.6,657.6,700.9,657.5,700.6z"/>
						<path class="st5" d="M651.6,714.2C651.6,714.2,651.6,714.2,651.6,714.2C651.6,714.2,651.6,714.2,651.6,714.2z"/>
						<path class="st5" d="M646.5,715.2l-0.1,0.2c0.9-0.4,2,0,3-0.2l-0.1,0.1c1.9,0.1,3.8-0.1,5.6-0.3c-0.1-0.6-0.1-1.2-0.2-1.8
							c0,0,0.1,0.1,0.1,0.1c-0.1-0.1-0.2-0.3-0.2-0.4c0.1,0,0.1,0,0.1,0.1c0.4-0.5-0.2-1.6,0.1-1.9c0-0.1-0.2-0.2-0.3-0.1
							c-0.1-2-0.2-4.1-0.5-6.1c0.1-0.1,0.2-0.1,0.3-0.1c-0.2-0.5-0.3-1.1-0.4-1.6c-0.1-0.7-0.1-1.8,0-2.6l1.7,0.1l1.3,0.1
							c0.1-0.2-0.2-0.2,0-0.3c-0.3-0.1-0.5,0-1,0.1c-0.4,0.1-0.8,0.2-1.3,0l0-0.2c-0.8-0.1,0.2,0.4-0.7,0.2
							c-0.4-0.1-0.1-0.2-0.3-0.2l-0.1,0c0,0.7,0,1.5,0,2.2l0,0.5c0,0.1,0,0.2,0,0.3c0,0.2,0.1,0.4,0.2,0.6c-0.3,0.2,0,0.9-0.3,1.1
							c0.1,0.2,0.1,0.4,0.3,0.5c-0.1,1.4-0.1,2.8,0,4.2l0.1,2.1l0,1.9c0.2,0.2,0.3,0.5,0.3,0.7c-0.3,0-0.6-0.1-1.1-0.1
							c-0.6-0.1-1.2-0.1-1.7,0c0,0,0-0.1,0-0.1c-0.5,0.2-1.3,0.2-1.9,0.2l-0.5,0.3c-1.2-0.2-2.4-0.3-3.6-0.3l-1.8,0l-2.5,0
							c0,1.8,0,3.1-0.1,5l0.9,0c0.7,0,1.4,0,2.1,0.1c0.5,0,1,0.1,1.5,0.1c1,0.1,2,0.1,3,0.1c1,0,2,0,3-0.1c0.5,0,1-0.1,1.5-0.2
							c0.3,0,0.4-0.1,0.5-0.1l0.5-0.2c-0.1,0.1-0.1,0.1-0.2,0.1c0.1,0,0.1,0,0.2,0c0,0.3,0,0.6,0,0.9c0,0.5,0,1,0,1.5l-0.1,0
							c0.6,2.8-0.1,5.8,0.5,8.5c0,0.7,0,1.4,0,2.2c1.3,0,2.7,0,4.1,0c0-1.9-0.1-3.4-0.2-5l0.1,0c-0.1-1.4,0-2.8,0.1-4.1l0.1-2.1l0-1
							c0-0.3,0-0.5,0-0.8l0-0.4c0.6,0,0.8,0,1.6-0.1c0.7-0.1,1.4-0.2,2.1-0.2c1.4-0.2,2.8-0.3,4.1-0.1c1.4,0.5,3.4-0.3,4.5-0.3
							c0-0.3,0.1-0.5,0.2-0.8c0.2-0.7,0.4-1.7,0.5-2.8c-0.4,0-0.8,0-1.2-0.1h-1.1c-0.6,0-1.3,0.1-1.9,0.2c-1.3,0.2-2.6,0.4-3.9,0.6
							c-0.9-0.1-1.7-0.1-2.6-0.1c-1,0-2,0.1-3,0.2c-0.1-1.9-0.1-3.2,0.3-4.6c-0.5-1.5,0.6-3.1,0.5-4.7l-0.2,0.1
							c0.5-0.6-0.7-1.3,0-1.7l0,0.1c0.4-0.3-0.9-0.7-0.4-0.9l-0.2,0c-0.1-0.4,0.2,0,0.3-0.3c0-0.1-0.3,0-0.2-0.3
							c0.8,0-0.2-0.9,0.7-0.9c0,0.2,0.3-0.3,0.5,0.1c0.1-0.1,0-0.8-0.3-0.7c-0.4-0.1-0.7-0.3-1,0.1l0.3,0.1
							c-0.3,0.1-0.1,0.1-0.4,0.1c0,0.5-0.4,0.6-0.6,0.9c0,0,0,0,0,0c0.3,0.2,0.1,0.6,0.1,0.8l-0.2,0.1c-0.3,0.1,0.6,0.6,0.1,0.4
							c0.1,1,0.1,2.2,0.1,3.3c0.2,0.2,0,0.9,0.4,0.6c-0.5,0.3-0.6,1.1-0.6,1.4c0,0-0.1,0-0.1-0.1c-0.6,0.6,0.6,0.7-0.2,1.3
							c0.5,0.1-0.2,1,0.5,1.3c-0.1,0.1-0.2,0.1-0.3,0.1c0,0.5-0.1,1-0.1,1.6c-0.1,1-0.1,2-0.1,2.9l0,0.1c0.9-0.2,1.6-0.2,2.4-0.1
							l0.6,0c0.1,0,0.2,0,0.3,0c0.2,0,0.4-0.1,0.5-0.3c0.5,0.1,1.4,0.4,2.1,0.1l-0.1,0.1c0.8,0,1.9-0.1,2.4-0.5
							c0.2,0.6,0.6,0.5,1,0.7c0.6-0.3,1.7-0.2,2.5-0.5c0.1,0.3,0.7-0.1,0.7,0.3l0.4-0.1c0,0,0.1-0.1,0.1-0.1
							c0.1-0.1,0.3-0.1,0.4-0.2c0.1,0.2,0.1,1.4-0.1,1.5c-0.2,0-0.4-0.1-0.5-0.2c0,0,0,0-0.1-0.1l-0.3-0.1l-0.6-0.1l0,0
							c-0.3,0.2-0.7,0.7-1,1c0,0,0-0.1,0-0.1c-0.5,0.1-0.9-0.3-1.4-0.3c0-0.1,0-0.1,0.1-0.1c-0.4,0.2-0.9-0.3-1.4,0l0-0.1l-0.3,0.2
							c0-0.1,0-0.3,0.2-0.3c-1.1,0-2.2,0-3.4,0.1l-1.7,0.1l-2.6,0.1l0.2,3.6c0,0.9,0.1,1.8,0,2.7l-0.1-0.1l0.2,0.8
							c-0.1,0-0.1,0-0.1-0.1c-0.2,1,0.2,2,0.1,3c-0.1,0-0.2-0.2-0.3,0c0.4,0.7-0.5,1.2,0.3,1.5c0,0-0.2,0.1-0.3,0
							c0.1,0.5,0.1,1.1,0.1,1.6c0,0.4,0.1,0.6,0.1,0.9c-0.3,0-0.5,0-0.8,0l-0.7,0l-0.4,0c-0.2,0.1-0.4,0.2-0.6,0.2
							c-0.3-0.6,0.1-2.6-0.4-4l0.1,0c-0.5-2.3,0-4.7-0.1-7c0-0.7,0-1.5-0.1-2.2c-0.2,0-0.4,0-0.6,0l0.1-0.2c-1.1,0.3-1.8,0.2-2.8,0
							c-0.9-0.1-1.8-0.3-2.6,0.1l0.1-0.2c-0.3,0.4-1-0.1-0.9,0.5l-0.3-0.2c-1.2,0.8-2.1-0.4-3.6,0.2l0.1-0.1
							c-0.4,0.1-0.8,0.2-1.1,0.1c0,0,0-0.1,0.1-0.1c-0.5-0.3-0.8-0.3-1.3-0.2c-0.1-0.4-0.3-1.1-0.3-1.8c0,0,0.3,0.2,0.3,0.1
							c-0.2-0.3-0.2-0.8-0.1-1.2c0.3,0,0.7,0,0.9,0l0,0.1c0,0,0.3-0.2,0.3-0.2l0,0.3C644.5,715.5,645.5,715.3,646.5,715.2z"/>
						<path class="st5" d="M654.8,713L654.8,713C654.9,713.1,654.9,713.1,654.8,713z"/>
						<path class="st5" d="M657.5,702.9c0,0,0-0.1,0.1-0.1C657.5,702.8,657.5,702.9,657.5,702.9z"/>
					</g>
				</g>
			</g>
			<g>
				<path class="st5" d="M687.5,699.5h-0.1l-6.5,3.5l-1-3.8l8.2-4.4h4.3v37.4h-4.9V699.5z"/>
				<g>
					<path class="st1" d="M687.5,699.5h-0.1l-6.5,3.5l-1-3.8l8.2-4.4h4.3v37.4h-4.9V699.5z"/>
					<g>
						<polygon class="st5" points="686,699.5 686,699.6 686.2,699.7 						"/>
						<path class="st5" d="M686.5,700.3c0,0,0.1,0,0.1,0l-0.6-0.5C685.7,700,686.8,700.2,686.5,700.3z"/>
						<path class="st5" d="M686.5,700.5c-0.1,0.2,0.1,0.3,0.2,0.3C686.5,700.7,686.8,700.4,686.5,700.5z"/>
						<path class="st5" d="M686.6,716.6C686.6,716.6,686.6,716.5,686.6,716.6C686.6,716.6,686.6,716.6,686.6,716.6z"/>
						<path class="st5" d="M687.7,720.8l0.2,0c-0.4-0.8,0-1.7-0.2-2.5l0.1,0.1c0.1-2.1-0.3-4-0.5-6.1c0,0,0.1,0,0.1,0.1
							c-0.1-0.1-0.2-0.2-0.2-0.3c0.1,0,0.1,0,0.1,0.1c0.4-0.4-0.3-1.3,0.1-1.6c0-0.1-0.2-0.2-0.3-0.1c-0.1-1.6-0.2-3.4-0.5-5.1
							c0.1-0.1,0.2-0.1,0.3-0.1c-0.6-1.4-0.4-2.9-0.3-4.4c-0.2-0.1-0.2,0.1-0.3,0c-0.2,0.5,0.4,0.9,0.1,1.3l-0.2-0.1
							c-0.1,0.3,0.4,0.1,0.2,0.4c-0.1,0.1-0.2,0-0.2,0c0.1,0.7-0.1,1.3,0.3,2c-0.3,0.2,0,0.7-0.3,0.9c0.1,0.2,0.1,0.3,0.3,0.4
							c-0.2,2.3,0.2,4.7,0.1,7c0.7,1.1-0.1,2.4,0.1,3.7c0,0,0,0-0.1,0c0.2,0.4,0.2,1,0.2,1.6l0.3,0.4c-0.6,3.1-0.2,6.2-0.4,9.3
							c0,0.7-0.1,1.5-0.1,2.2l0,0.5l0,0.8c0,0.6,0,1.2-0.1,1.8l2.1,0l0.8,0l0.6,0c0.5,0,0.9-0.1,1.4-0.1c0.7,0,1.3-0.1,1.9-0.2
							c-0.1-0.5-0.1-1-0.2-1.5c0.1,0,0.1,0,0.1,0.1c0-0.4,0-0.8,0-1l0-0.7c0-0.5,0.1-0.9,0-1.4l0.1,0c-0.6-2.3,0.1-4.8-0.5-7.1
							c0.1-2.7,0-5.8-0.2-8.7l0.1,0c-0.3-2.3,0.4-4.5,0.2-6.8c0.3-2.4-0.8-4.9-0.4-7.3c0.5-1.1-0.2-2.7-0.3-3.6
							c-0.3,0-0.5,0-0.8-0.2c-0.5-0.2-1.1-0.3-1.6-0.4c-0.6-0.1-1-0.1-1.8-0.1c-1.7,0.9-2.9,2-4.3,3.2c-0.6,0.2-1.3,0.6-1.8,0.9
							c-0.6,0.4-1.1,0.7-1.5,1c0.2,0.5,0.3,0.9,0.4,1.5c0.1,0.5,0.1,0.9,0.1,1.7c0,0,0.1,0.1,0.1,0.1c0.5-0.4,0.8-0.4,1.4-0.5
							c0.6-0.1,1.3-0.2,1.8-0.6l-0.1-0.1c0.7,0.2,0.6-1.1,1.2-0.6l0,0.1c0.4,0.2,0.1-1.1,0.5-0.7l-0.1-0.2c0.2-0.2,0.1,0.2,0.4,0.1
							c0.1-0.1-0.1-0.3,0.1-0.3c0.4,0.7,0.6-0.5,1,0.2c-0.1,0.1,0.4,0.2,0.1,0.5c0.1,0,0.6-0.3,0.4-0.6c-0.1-0.4-0.1-0.8-0.5-0.9
							l0.1,0.3c-0.2-0.2-0.1-0.1-0.3-0.3c-0.4,0.2-0.6-0.2-1-0.2c0,0,0,0,0,0c0,0.4-0.4,0.3-0.5,0.4l-0.1-0.1
							c-0.2-0.2-0.1,0.8-0.3,0.2c-0.7,0.5-1.5,1-2.3,1.4c0,0.2-0.6,0.3-0.3,0.6c-0.6-0.2-0.6-0.4-0.7-0.3c0-0.1,0-0.1,0-0.1
							c0-0.3,0-0.2-0.1,0c-0.1,0.2-0.2,0.4,0,0c0,0,0-0.1,0.1-0.1c-0.2,0.4-0.2,0.3-0.1,0.2c0-0.1,0-0.1-0.3,0.1
							c0.1-0.1,0.2-0.2,0.3-0.2c0,0,0-0.1,0-0.1l-0.1-0.6c0-0.1,0-0.3,0-0.3l0,0c0,0,0,0,0,0c-0.1,0-0.1,0-0.1-0.1
							c-0.1-0.2,0.1,0.2,0.5-0.6c0.4-0.1,1.2-0.2,1.6-0.7l0,0.1c0.6-0.4,1.3-0.8,1.6-1.4c0.5,0.4,0.7,0.2,1,0.2
							c0.3-0.5,1.1-0.8,1.6-1.4c0.2,0.2,0.5-0.4,0.6,0c0,0,0-0.1,0-0.1c-0.1-0.1,0.4-0.2,0.7-0.3c0.4-0.1,0.7-0.1,1.1-0.1
							c0.9,0,1,0,1.2,0.2c-0.1,0.2-0.1,0.3-0.2,0.4c-0.1,0.1-0.1,0.1-0.2,0.5l0,0c0.2,0.3,0.7,0.6,1,0.9c0,0-0.1,0-0.1,0
							c0.1,0.4-0.3,0.7-0.3,1.1c-0.1,0-0.1,0-0.1-0.1c0.2,0.4-0.3,0.7,0,1.2l-0.1,0l0.2,0.3c-0.1,0-0.3,0-0.3-0.2
							c-0.1,3.3,0.6,6.7,0.5,10l-0.1-0.1l0.2,0.7c-0.1,0-0.1,0-0.1-0.1c-0.2,0.8,0.2,1.7,0.1,2.5c-0.1,0-0.2-0.1-0.3,0
							c0.4,0.6-0.5,1,0.3,1.3c0,0-0.2,0-0.3,0c0.3,1.7,0.2,3.4,0.1,5.1c0.7,1.4,0.1,3,0.6,4.4l-0.1,0c0.5,1.9,0,3.9,0.1,5.8
							c-0.1,0.8,0.1,1.4,0.1,2.1l-0.2-0.1c0.1,0.2,0.2,0.5,0.2,0.7c-0.5,0.1-1.1-0.1-1.7-0.2c-0.6-0.1-1.3-0.2-1.8,0.2l0.1-0.2
							c-0.3,0.4-0.6-0.1-0.9,0.5c0,0-0.1-0.2-0.1-0.2c-0.2,0.1-0.3,0.1-0.5,0.2c-0.2-0.3-0.1-0.9,0-1.3c0.1-0.4,0.2-0.9,0-1.4
							l0.1,0.1c-0.1-0.3-0.2-0.7-0.1-0.9c0,0,0.1,0,0.1,0.1c0.6-1-0.1-2.1,0-3.1l0.3,0.1c-0.3-0.5,0-1.4-0.2-2.1l0.1,0l-0.2-0.3
							l0.3,0C687.9,722.4,687.7,721.6,687.7,720.8z"/>
						<path class="st5" d="M687.3,712.1L687.3,712.1C687.4,712.1,687.4,712.1,687.3,712.1z"/>
						<path class="st5" d="M685.9,699c0,0,0.1,0,0.1,0C686,698.9,685.9,699,685.9,699z"/>
					</g>
				</g>
			</g>
			<g>
				<path class="st5" d="M705.7,712.8v-3.4h29.7v3.4H705.7z M705.7,724v-3.4h29.7v3.4H705.7z"/>
				<g>
					<path class="st1" d="M705.7,712.8v-3.4h29.7v3.4H705.7z M705.7,724v-3.4h29.7v3.4H705.7z"/>
					<g>
						<polygon class="st5" points="705.7,725.5 705.8,725.6 705.9,725.3 						"/>
						<path class="st5" d="M706.3,725c0,0,0-0.1,0-0.1l-0.3,0.6C706.1,725.8,706.2,724.7,706.3,725z"/>
						<path class="st5" d="M706.4,725c0.1,0.1,0.2-0.1,0.2-0.2C706.5,725,706.3,724.7,706.4,725z"/>
						<path class="st5" d="M717.1,724.9C717.1,724.9,717,724.9,717.1,724.9C717,724.9,717.1,724.9,717.1,724.9z"/>
						<path class="st5" d="M719.9,723.9l0-0.2c-0.5,0.4-1.1,0-1.7,0.2l0-0.1c-1.4-0.1-2.7,0.3-4.1,0.5c0,0,0-0.1,0.1-0.1
							c-0.1,0.1-0.1,0.2-0.2,0.2c0-0.1,0-0.1,0-0.1c-0.3-0.4-0.9,0.2-1-0.1c-0.1,0-0.1,0.2-0.1,0.3c-1.1,0.1-2.2,0.2-3.4,0.5
							c-0.1-0.1-0.1-0.2,0-0.3c-0.9,0.6-1.9,0.4-2.9,0.3c0,0.2,0.1,0.2,0,0.3c0.3,0.2,0.6-0.4,0.8-0.1l0,0.2c0.2,0.1,0-0.4,0.3-0.2
							c0.1,0.1,0,0.2,0,0.2c0.4-0.1,0.9,0.1,1.3-0.3c0.1,0.4,0.5,0,0.6,0.3c0.1-0.1,0.2-0.1,0.3-0.3c1.5,0.2,3.1-0.2,4.6-0.1
							c0.7-0.7,1.6,0.1,2.5-0.1c0,0,0,0,0,0.1c0.3-0.2,0.7-0.2,1-0.2l0.3-0.3c2,0.6,4.1,0.2,6.2,0.4c2.3,0.2,4.4,0.7,6.7-0.2
							c0,0.1,0,0.1,0,0.1c0.7-0.1,1.3,0.1,1.9,0l0,0.1c0.7-0.3,1.8-0.3,2.8-0.2c0-0.5,0-1.1,0-1.6c0-0.3,0-0.5-0.1-0.7
							c0-0.2-0.1-0.5-0.2-0.6c0-0.4,0-0.8,0-1.3c-1.8,0-3.3,0.1-4.9,0.2l0-0.1c-1.5,0.3-3-0.4-4.5-0.2c-1.6-0.3-3.2,0.8-4.8,0.4
							c-1-0.7-2.3,0.8-3.2,0.1c-1.9-1-3.7-0.4-5.6,0.2c-1.7-0.4-3.5,0.6-5.2-0.2c-0.5,0.3-0.9,0-1.8-0.3c-0.1,0.2-0.2,0.6-0.2,1
							l0.2,0c-0.3,0.1-0.1,0.4,0.1,0.6c0.1,0.2,0.3,0.3-0.1,0.4l0,0c-0.4,0.2,0.9,0.4,0.4,0.5l0.2,0c0.1,0.2-0.2,0-0.3,0.2
							c0,0.1,0.3,0,0.2,0.1c-0.8,0,0.2,0.5-0.7,0.5c0-0.1-0.3,0.2-0.5-0.1c-0.1,0.1,0,0.4,0.3,0.4c0.4,0,0.7,0.2,1,0l-0.3,0
							c0.3-0.1,0.1-0.1,0.4-0.1c0-0.3,0.4-0.3,0.6-0.5c0,0,0,0,0,0c-0.3-0.1-0.1-0.3-0.1-0.4l0.2,0c0.3-0.1-0.6-0.3-0.1-0.2
							c-0.1-0.7-0.1-0.8-0.1-1c-0.1-0.1-0.1-0.2-0.1-0.2c0,0,0-0.1-0.2-0.3c0.6,0.5,0.7,0.6,0.7,0.6c0,0,0,0.1,0,0.1
							c0.2,0.3,0.1,0.2,0.1,0c0-0.1,0-0.2,0.1,0.1c0-0.5,0.6,0.2,0.7-0.5c0,0.1,0.1,0.2,0,0.3c0.6,0,1.2,0.2,1.7,0.2
							c0.4-0.5,1,0.2,1.3-0.4c0.3,0.1,0.8,0.4,1.2,0.1l0,0.1c0.5,0,1-0.1,1.3-0.5c0.1,0.6,0.3,0.5,0.5,0.7c0.3-0.3,0.9-0.2,1.4-0.5
							c0.1,0.3,0.4-0.1,0.4,0.3c1.3-0.8,2.9-0.5,4.3,0.1l0,0c0.2-0.2,0.4-0.7,0.6-1c0,0,0,0.1,0,0.1c0.3-0.1,0.5,0.3,0.7,0.3
							c0,0.1,0,0.1,0,0.1c0.2-0.2,0.5,0.3,0.8,0l0,0.1l0.2-0.2c0,0.1,0,0.3-0.1,0.3c2.2,0.1,4.4-0.6,6.6-0.5l-0.1,0.1l0.4-0.2
							c0,0.1,0,0.1,0,0.1c0.6,0.2,1.1-0.2,1.7-0.1c0,0.1-0.1,0.2,0,0.3c0.4-0.4,0.6,0.5,0.8-0.3c0,0,0,0.2,0,0.3
							c0.6-0.1,1.1-0.2,1.7-0.2c0.7,0,0.9,0,1.1,0.1c0.1-0.1,0.3-0.2,0.5-0.2c0.3,0.3-0.1,1.1,0.4,1.9l-0.1-0.1
							c0.1,0.3,0.2,0.7,0.2,1c-0.9,0.1-1.8-0.2-2.8-0.1c-0.5-0.1-0.9,0.1-1.4,0.1l0-0.2c-0.9,0.7-1.9-0.6-2.9,0.1l0.1-0.2
							c-0.1,0.4-0.6-0.1-0.5,0.5l-0.2-0.2c-0.6,0.8-1.2-0.4-2,0.2l0.1-0.1c-0.2,0.1-0.5,0.2-0.6,0.1c0,0,0-0.1,0.1-0.1
							c-0.7-0.6-1.4,0.1-2.1,0l0.1-0.3c-0.3,0.3-1,0-1.4,0.2l0-0.1l-0.2,0.2l0-0.3C721,723.6,720.4,723.9,719.9,723.9z"/>
						<path class="st5" d="M714.1,724.2L714.1,724.2C714.1,724.2,714.1,724.2,714.1,724.2z"/>
						<path class="st5" d="M706.9,723.3C706.9,723.3,706.9,723.4,706.9,723.3C706.9,723.4,706.9,723.3,706.9,723.3z"/>
					</g>
					<g>
						<polygon class="st5" points="705.7,714.2 705.8,714.3 705.9,714.1 						"/>
						<path class="st5" d="M706.3,713.7c0,0,0-0.1,0-0.1l-0.3,0.6C706.1,714.6,706.2,713.5,706.3,713.7z"/>
						<path class="st5" d="M706.4,713.8c0.1,0.1,0.2-0.1,0.2-0.2C706.5,713.8,706.3,713.5,706.4,713.8z"/>
						<path class="st5" d="M717.1,713.6C717.1,713.6,717,713.6,717.1,713.6C717,713.7,717.1,713.7,717.1,713.6z"/>
						<path class="st5" d="M719.9,712.6l0-0.2c-0.5,0.4-1.1,0-1.7,0.2l0-0.1c-1.4-0.1-2.7,0.3-4.1,0.5c0,0,0-0.1,0.1-0.1
							c-0.1,0.1-0.1,0.2-0.2,0.2c0-0.1,0-0.1,0-0.1c-0.3-0.4-0.9,0.2-1-0.1c-0.1,0-0.1,0.2-0.1,0.3c-1.1,0.1-2.2,0.2-3.4,0.5
							c-0.1-0.1-0.1-0.2,0-0.3c-0.9,0.6-1.9,0.4-2.9,0.3c0,0.2,0.1,0.2,0,0.3c0.3,0.2,0.6-0.4,0.8-0.1l0,0.2c0.2,0.1,0-0.4,0.3-0.2
							c0.1,0.1,0,0.2,0,0.2c0.4-0.1,0.9,0.1,1.3-0.3c0.1,0.3,0.5,0,0.6,0.3c0.1-0.1,0.2-0.1,0.3-0.3c1.5,0.2,3.1-0.2,4.6-0.1
							c0.7-0.7,1.6,0.1,2.5-0.1c0,0,0,0,0,0.1c0.3-0.2,0.7-0.2,1-0.2l0.3-0.3c2,0.6,4.1,0.2,6.2,0.4c2.3,0.2,4.4,0.7,6.7-0.2
							c0,0.1,0,0.1,0,0.1c0.7-0.1,1.3,0.1,1.9,0l0,0.1c0.7-0.3,1.8-0.3,2.8-0.2c0-0.5,0-1.1,0-1.6c0-0.3,0-0.5-0.1-0.7
							c0-0.2-0.1-0.5-0.2-0.6c0-0.4,0-0.8,0-1.3c-1.8,0-3.3,0.1-4.9,0.2l0-0.1c-1.5,0.3-3-0.4-4.5-0.2c-1.6-0.3-3.2,0.8-4.8,0.4
							c-1-0.7-2.3,0.8-3.2,0.1c-1.9-1-3.7-0.4-5.6,0.2c-1.7-0.4-3.5,0.6-5.2-0.2c-0.5,0.3-0.9,0-1.8-0.3c-0.1,0.2-0.2,0.6-0.2,1
							l0.2,0c-0.3,0.1-0.1,0.4,0.1,0.6c0.1,0.2,0.3,0.3-0.1,0.4l0,0c-0.4,0.2,0.9,0.4,0.4,0.5l0.2,0c0.1,0.2-0.2,0-0.3,0.2
							c0,0.1,0.3,0,0.2,0.1c-0.8,0,0.2,0.5-0.7,0.5c0-0.1-0.3,0.2-0.5-0.1c-0.1,0.1,0,0.4,0.3,0.4c0.4,0,0.7,0.2,1,0l-0.3,0
							c0.3-0.1,0.1-0.1,0.4-0.1c0-0.3,0.4-0.3,0.6-0.5c0,0,0,0,0,0c-0.3-0.1-0.1-0.3-0.1-0.4l0.2,0c0.3-0.1-0.6-0.3-0.1-0.2
							c-0.1-0.7-0.1-0.8-0.1-1c-0.1-0.1-0.1-0.2-0.1-0.2c0,0,0-0.1-0.2-0.3c0.6,0.5,0.7,0.6,0.7,0.6c0,0,0,0.1,0,0.1
							c0.2,0.3,0.1,0.2,0.1,0c0-0.1,0-0.2,0.1,0.1c0-0.5,0.6,0.2,0.7-0.5c0,0.1,0.1,0.2,0,0.3c0.6,0,1.2,0.2,1.7,0.2
							c0.4-0.5,1,0.2,1.3-0.4c0.3,0.1,0.8,0.4,1.2,0.1l0,0.1c0.5,0,1-0.1,1.3-0.5c0.1,0.6,0.3,0.5,0.5,0.7c0.3-0.3,0.9-0.2,1.4-0.5
							c0.1,0.3,0.4-0.1,0.4,0.3c1.3-0.8,2.9-0.5,4.3,0.1l0,0c0.2-0.2,0.4-0.7,0.6-1c0,0,0,0.1,0,0.1c0.3-0.1,0.5,0.3,0.7,0.3
							c0,0.1,0,0.1,0,0.1c0.2-0.2,0.5,0.3,0.8,0l0,0.1l0.2-0.2c0,0.1,0,0.3-0.1,0.3c2.2,0.1,4.4-0.6,6.6-0.5l-0.1,0.1l0.4-0.2
							c0,0.1,0,0.1,0,0.1c0.6,0.2,1.1-0.2,1.7-0.1c0,0.1-0.1,0.2,0,0.3c0.4-0.4,0.6,0.5,0.8-0.3c0,0,0,0.2,0,0.3
							c0.6-0.1,1.1-0.2,1.7-0.2c0.7,0,0.9,0,1.1,0.1c0.1-0.1,0.3-0.2,0.5-0.2c0.3,0.3-0.1,1.1,0.4,1.9l-0.1-0.1
							c0.1,0.3,0.2,0.7,0.2,1c-0.9,0.1-1.8-0.2-2.8-0.1c-0.5-0.1-0.9,0.1-1.4,0.1l0-0.2c-0.9,0.7-1.9-0.6-2.9,0.1l0.1-0.2
							c-0.1,0.4-0.6-0.1-0.5,0.5l-0.2-0.2c-0.6,0.8-1.2-0.4-2,0.2l0.1-0.1c-0.2,0.1-0.5,0.2-0.6,0.1c0,0,0-0.1,0.1-0.1
							c-0.7-0.6-1.4,0.1-2.1,0l0.1-0.3c-0.3,0.3-1,0-1.4,0.2l0-0.1l-0.2,0.2l0-0.3C721,712.4,720.4,712.6,719.9,712.6z"/>
						<path class="st5" d="M714.1,712.9L714.1,712.9C714.1,712.9,714.1,712.9,714.1,712.9z"/>
						<path class="st5" d="M706.9,712C706.9,712.1,706.9,712.1,706.9,712C706.9,712.1,706.9,712.1,706.9,712z"/>
					</g>
				</g>
			</g>
		</g>
	</g>
</g>
<g>
	<g>
		<g>
			
				<ellipse transform="matrix(0.2215 -0.9752 0.9752 0.2215 -65.5952 417.1234)" class="st6" cx="228.4" cy="249.6" rx="202.6" ry="202.6"/>
		</g>
		<g>
			<path class="st1" d="M137.4,360.9l184-200.2l109.2,103.1c0.3-4.7,0.5-9.4,0.5-14.2C431.1,137.7,340.4,47,228.4,47
				C116.5,47,25.8,137.7,25.8,249.6c0,111.9,90.7,202.6,202.6,202.6c1.9,0,3.8,0,5.7-0.1L137.4,360.9z"/>
			<path class="st7" d="M137.4,360.9l96.7,91.3c104.6-2.9,189.3-85,196.5-188.4L321.4,160.7L137.4,360.9z"/>
		</g>
	</g>
	<g>
		<g>
			<g>
				<path class="st8" d="M192,351.2c0,7.6-6.2,13.8-13.8,13.8h-30.4c-7.6,0-13.8-6.2-13.8-13.8v-21.4c0-7.6,6.2-13.8,13.8-13.8h30.4
					c7.6,0,13.8,6.2,13.8,13.8V351.2z"/>
			</g>
			<g>
				<path class="st8" d="M322,351.2c0,7.6-6.2,13.8-13.8,13.8h-30.4c-7.6,0-13.8-6.2-13.8-13.8v-21.4c0-7.6,6.2-13.8,13.8-13.8h30.4
					c7.6,0,13.8,6.2,13.8,13.8V351.2z"/>
			</g>
		</g>
		<g>
			<path class="st0" d="M330.1,177c-2.2-21-47.2-46.1-102.4-46.1c-55.2,0-100.2,25.1-102.4,46.1h0.7v156h203V177H330.1z"/>
		</g>
		<g>
			<path class="st8" d="M336,330c0,3.3-2.7,6-6,6H123c-3.3,0-6-2.7-6-6l0,0c0-3.3,2.7-6,6-6h207C333.3,324,336,326.7,336,330
				L336,330z"/>
		</g>
		<g>
			<path class="st5" d="M311,250.5c0,1.9-1.5,3.5-3.5,3.5H148.5c-1.9,0-3.5-1.5-3.5-3.5v-65.1c0-1.9,1.5-3.5,3.5-3.5h159.1
				c1.9,0,3.5,1.5,3.5,3.5V250.5z"/>
		</g>
		<g>
			<path class="st5" d="M310.7,291.2c0,10.7-8.7,19.4-19.4,19.4c-10.7,0-19.4-8.7-19.4-19.4c0-10.7,8.7-19.4,19.4-19.4
				C302,271.8,310.7,280.5,310.7,291.2z"/>
		</g>
		<g>
			<path class="st5" d="M184,291.2c0,10.7-8.7,19.4-19.4,19.4c-10.7,0-19.4-8.7-19.4-19.4c0-10.7,8.7-19.4,19.4-19.4
				C175.3,271.8,184,280.5,184,291.2z"/>
		</g>
		<g>
			<path class="st8" d="M259,281.1c0,1.6-1.3,2.9-2.9,2.9h-60.2c-1.6,0-2.9-1.3-2.9-2.9v-0.2c0-1.6,1.3-2.9,2.9-2.9h60.2
				c1.6,0,2.9,1.3,2.9,2.9V281.1z"/>
		</g>
		<g>
			<path class="st8" d="M259,293.1c0,1.6-1.3,2.9-2.9,2.9h-60.2c-1.6,0-2.9-1.3-2.9-2.9v-0.2c0-1.6,1.3-2.9,2.9-2.9h60.2
				c1.6,0,2.9,1.3,2.9,2.9V293.1z"/>
		</g>
		<g>
			<path class="st8" d="M259,306.1c0,1.6-1.3,2.9-2.9,2.9h-60.2c-1.6,0-2.9-1.3-2.9-2.9v-0.2c0-1.6,1.3-2.9,2.9-2.9h60.2
				c1.6,0,2.9,1.3,2.9,2.9V306.1z"/>
		</g>
		<g>
			<g>
				<g>
					<path class="st0" d="M120.7,225.2c0,13.4-8.5,24.2-19,24.2c-10.5,0-19-10.8-19-24.2c0-13.4,8.5-24.2,19-24.2
						C112.2,201,120.7,211.8,120.7,225.2z"/>
				</g>
			</g>
			<g>
				<path class="st9" d="M311,174.9c0,1.4-1.4,2.1-2.9,2.1H147.3c-1.4,0-2.3-0.7-2.3-2.1v-1.2c0-1.4,0.8-2.7,2.3-2.7h160.9
					c1.4,0,2.9,1.2,2.9,2.7V174.9z"/>
			</g>
			<g>
				<g>
					<g>
						<path class="st0" d="M120.7,225.2c0,13.4-8.5,24.2-19,24.2c-10.5,0-19-10.8-19-24.2c0-13.4,8.5-24.2,19-24.2
							C112.2,201,120.7,211.8,120.7,225.2z"/>
					</g>
				</g>
				<g>
					<g>
						<path class="st0" d="M105.5,206.7c2.7-12.3,13.6-19.9,25.8-20.1c5.2-0.1,5.2-8.2,0-8.1c-15.6,0.3-30.1,10.3-33.6,26.1
							C96.7,209.6,104.4,211.8,105.5,206.7L105.5,206.7z"/>
					</g>
				</g>
			</g>
			<g>
				<g>
					<path class="st0" d="M336.3,225.2c0,13.4,8.5,24.2,19,24.2c10.5,0,19-10.8,19-24.2c0-13.4-8.5-24.2-19-24.2
						C344.8,201,336.3,211.8,336.3,225.2z"/>
				</g>
			</g>
			<g>
				<g>
					<g>
						<path class="st0" d="M336.3,225.2c0,13.4,8.5,24.2,19,24.2c10.5,0,19-10.8,19-24.2c0-13.4-8.5-24.2-19-24.2
							C344.8,201,336.3,211.8,336.3,225.2z"/>
					</g>
				</g>
				<g>
					<g>
						<path class="st0" d="M359.2,204.6c-3.5-15.8-17.9-25.7-33.6-26.1c-5.2-0.1-5.2,8,0,8.1c12.2,0.3,23.1,7.9,25.8,20.1
							C352.6,211.8,360.3,209.6,359.2,204.6L359.2,204.6z"/>
					</g>
				</g>
			</g>
		</g>
		<g>
			<path class="st8" d="M298.3,254h-6.9c0-11-9.7-21.6-21.6-21.6c-11.9,0-21.6,10.6-21.6,21.6h-6.9c0-15,12.8-28.5,28.5-28.5
				C285.5,225.5,298.3,239,298.3,254z"/>
		</g>
		<g>
			<polygon class="st8" points="273,254 266,254 266,248.8 251.8,238.9 255.8,233.3 273,245.2 			"/>
		</g>
		<g>
			
				<rect x="268" y="239.1" transform="matrix(0.8388 -0.5444 0.5444 0.8388 -87.2835 190.2476)" class="st8" width="19.4" height="6.9"/>
		</g>
	</g>
</g>
<g>
	<g>
		<g>
			
				<ellipse transform="matrix(0.7071 -0.7071 0.7071 0.7071 162.3369 891.2014)" class="st13" cx="1156.9" cy="249.6" rx="202.6" ry="202.6"/>
		</g>
		<g>
			<path class="st1" d="M1037.4,367.9L1232,118l127.3,120.1C1353.3,131.5,1265,47,1156.9,47c-111.9,0-202.6,90.7-202.6,202.6
				c0,100.7,73.4,184.2,169.6,200L1037.4,367.9z"/>
			<path class="st14" d="M1037.4,367.9l86.6,81.7c10.7,1.8,21.8,2.7,33,2.7c111.9,0,202.6-90.7,202.6-202.6c0-3.9-0.1-7.7-0.3-11.6
				L1232,118L1037.4,367.9z"/>
		</g>
	</g>
	<g>
		<g>
			<path class="st9" d="M1235,366.2c0,3.9-3.5,7.8-7.4,7.8h-185.9c-3.9,0-6.7-3.9-6.7-7.8V124.9c0-3.9,2.8-6.9,6.7-6.9h185.9
				c3.9,0,7.4,3,7.4,6.9V366.2z"/>
			<rect x="1085" y="165" class="st5" width="110" height="42"/>
			<path class="st8" d="M1061,142.5c0,4.7-3.8,8.5-8.5,8.5h-25c-4.7,0-8.5-3.8-8.5-8.5v-1c0-4.7,3.8-8.5,8.5-8.5h25
				c4.7,0,8.5,3.8,8.5,8.5V142.5z"/>
			<path class="st8" d="M1061,172.5c0,4.7-3.8,8.5-8.5,8.5h-25c-4.7,0-8.5-3.8-8.5-8.5v-1c0-4.7,3.8-8.5,8.5-8.5h25
				c4.7,0,8.5,3.8,8.5,8.5V172.5z"/>
			<path class="st8" d="M1061,201.5c0,4.7-3.8,8.5-8.5,8.5h-25c-4.7,0-8.5-3.8-8.5-8.5v-1c0-4.7,3.8-8.5,8.5-8.5h25
				c4.7,0,8.5,3.8,8.5,8.5V201.5z"/>
			<path class="st8" d="M1061,231.5c0,4.7-3.8,8.5-8.5,8.5h-25c-4.7,0-8.5-3.8-8.5-8.5v-1c0-4.7,3.8-8.5,8.5-8.5h25
				c4.7,0,8.5,3.8,8.5,8.5V231.5z"/>
			<path class="st8" d="M1061,261.5c0,4.7-3.8,8.5-8.5,8.5h-25c-4.7,0-8.5-3.8-8.5-8.5v-1c0-4.7,3.8-8.5,8.5-8.5h25
				c4.7,0,8.5,3.8,8.5,8.5V261.5z"/>
			<path class="st8" d="M1061,291.5c0,4.7-3.8,8.5-8.5,8.5h-25c-4.7,0-8.5-3.8-8.5-8.5v-1c0-4.7,3.8-8.5,8.5-8.5h25
				c4.7,0,8.5,3.8,8.5,8.5V291.5z"/>
			<path class="st8" d="M1061,321.5c0,4.7-3.8,8.5-8.5,8.5h-25c-4.7,0-8.5-3.8-8.5-8.5v-1c0-4.7,3.8-8.5,8.5-8.5h25
				c4.7,0,8.5,3.8,8.5,8.5V321.5z"/>
			<path class="st8" d="M1061,351.5c0,4.7-3.8,8.5-8.5,8.5h-25c-4.7,0-8.5-3.8-8.5-8.5v-1c0-4.7,3.8-8.5,8.5-8.5h25
				c4.7,0,8.5,3.8,8.5,8.5V351.5z"/>
		</g>
		<rect x="1258" y="167" class="st0" width="21" height="207"/>
		<rect x="1269" y="167" class="st15" width="10" height="207"/>
		<g>
			<polygon class="st8" points="1268.8,141.3 1261.4,159 1274,153.7 			"/>
			<polygon class="st5" points="1261.4,159.1 1258.1,167 1279.4,167 1274,153.8 			"/>
		</g>
	</g>
</g>
<g>
	<g>
		<g>
			<path class="st9" d="M25.8,730.1c0,111.9,90.7,202.6,202.6,202.6c111.9,0,202.6-90.7,202.6-202.6c0-111.9-90.7-202.6-202.6-202.6
				C116.5,527.5,25.8,618.2,25.8,730.1z"/>
		</g>
		<g>
			<path class="st1" d="M116.4,835.9L235,829l20.4-40l46.6-30.6l-17.7-91l26.1-70.6L430.1,710C420,607.6,333.6,527.5,228.4,527.5
				c-111.9,0-202.6,90.7-202.6,202.6c0,108.7,85.6,197.4,193,202.4L116.4,835.9z"/>
			<path class="st7" d="M284.3,667.4l17.7,91L255.4,789L235,829l-118.6,6.9l102.4,96.7c3.2,0.2,6.4,0.2,9.7,0.2
				c111.9,0,202.6-90.7,202.6-202.6c0-6.8-0.3-13.5-1-20.1L310.5,596.8L284.3,667.4z"/>
		</g>
	</g>
	<g>
		<g>
			<path class="st8" d="M302,829.3c0,6.5-5.2,11.7-11.7,11.7H126.7c-6.5,0-11.7-5.2-11.7-11.7v-0.6c0-6.5,5.2-11.7,11.7-11.7h163.6
				c6.5,0,11.7,5.2,11.7,11.7V829.3z"/>
		</g>
		<g>
			<rect x="166" y="799" class="st0" width="85" height="18"/>
		</g>
		<g>
			<path class="st8" d="M290,788.1c0-6.1-5-11.1-11.1-11.1H139.1c-6.1,0-11.1,5-11.1,11.1v1.8c0,6.1,5,11.1,11.1,11.1h139.8
				c6.1,0,11.1-5,11.1-11.1V788.1z"/>
		</g>
		<g>
			<path class="st8" d="M316.6,723.2c-5.3-3.1-10.8-3.5-12.4-0.9l-35.5,60.1c-1.6,2.6,1.5,7.3,6.7,10.4l1,0.6
				c5.3,3.1,10.8,3.5,12.4,0.9l35.5-60.1c1.6-2.6-1.5-7.3-6.7-10.4L316.6,723.2z"/>
		</g>
		<g>
			<path class="st8" d="M276.5,670c5.3-3.1,10.8-3.5,12.4-0.9l35.5,60.1c1.6,2.6-1.5,7.3-6.7,10.4l-1,0.6
				c-5.3,3.1-10.8,3.5-12.4,0.9l-35.5-60.1c-1.6-2.6,1.5-7.3,6.7-10.4L276.5,670z"/>
		</g>
		<g>
			
				<rect x="195.8" y="637.3" transform="matrix(0.8035 -0.5953 0.5953 0.8035 -344.3963 282.2388)" class="st0" width="119.2" height="51.1"/>
		</g>
		<g>
			<path class="st8" d="M311.9,653.3l18.9-14c4.7-3.5,5.7-10.2,2.2-14.9l-17.7-24c-3.5-4.7-10.2-5.7-14.9-2.2l-18.9,14"/>
		</g>
		<g>
			<path class="st0" d="M207.8,689.4c-3.5-4.7-10.2-5.7-14.9-2.2l-0.3,0.2c-4.7,3.5-5.7,10.2-2.2,14.9l8.2,11.1
				c3.5,4.7,10.2,5.7,14.9,2.2l0.3-0.2c4.7-3.5,5.7-10.2,2.2-14.9L207.8,689.4z"/>
		</g>
		<g>
			<path class="st8" d="M204.6,668.4l-8.3,6.1c-4.7,3.5-5.7,10.2-2.2,14.9l17.7,23.9c3.5,4.7,10.2,5.7,14.9,2.2l8.3-6.1"/>
		</g>
		<g>
			<path class="st0" d="M324.4,732.4c0,7.7-6.2,13.9-13.9,13.9c-7.7,0-13.9-6.2-13.9-13.9c0-7.7,6.2-13.9,13.9-13.9
				C318.1,718.5,324.4,724.7,324.4,732.4z"/>
			<path class="st4" d="M310.5,751.6c-10.6,0-19.2-8.6-19.2-19.2c0-10.6,8.6-19.2,19.2-19.2s19.2,8.6,19.2,19.2
				C329.7,743,321.1,751.6,310.5,751.6z M310.5,723.8c-4.7,0-8.6,3.9-8.6,8.6s3.9,8.6,8.6,8.6s8.6-3.9,8.6-8.6
				S315.2,723.8,310.5,723.8z"/>
		</g>
		<g>
			<path class="st0" d="M290.3,670.7c0,7.7-6.2,13.9-13.9,13.9c-7.7,0-13.9-6.2-13.9-13.9c0-7.7,6.2-13.9,13.9-13.9
				C284.1,656.7,290.3,663,290.3,670.7z"/>
			<path class="st4" d="M276.4,689.9c-10.6,0-19.2-8.6-19.2-19.2c0-10.6,8.6-19.2,19.2-19.2c10.6,0,19.2,8.6,19.2,19.2
				C295.6,681.3,287,689.9,276.4,689.9z M276.4,662.1c-4.7,0-8.6,3.9-8.6,8.6c0,4.7,3.9,8.6,8.6,8.6c4.7,0,8.6-3.9,8.6-8.6
				C285,665.9,281.1,662.1,276.4,662.1z"/>
		</g>
		<g>
			<path class="st16" d="M251.1,767.8L251.1,767.8c0,5.3-4.3,9.2-9.6,9.2h-66c-5.3,0-9.6-4.1-9.6-9.4l0,0"/>
		</g>
	</g>
</g>
<g>
</g>
<g>
</g>
<g>
</g>
<g>
</g>
<g>
</g>
<g>
</g>
<g>
</g>
<g>
</g>
<g>
</g>
<g>
</g>
<g>
</g>
<g>
</g>
<g>
</g>
<g>
</g>
<g>
</g>
<g>
</g>
<g>
</g>
<g>
</g>
</svg>
